<svg xmlns="http://www.w3.org/2000/svg" viewBox="0 0 512 512" fill="none" role="img" aria-label="űĘŢË˘Ż¤ş">
  <defs>
    <linearGradient id="bg" x1="0" y1="0" x2="512" y2="512" gradientUnits="userSpaceOnUse">
      <stop stop-color="#0a0e17"/>
      <stop offset="1" stop-color="#1e1b4b"/>
    </linearGradient>
    <linearGradient id="train" x1="120" y1="256" x2="392" y2="256" gradientUnits="userSpaceOnUse">
      <stop stop-color="#2563eb"/>
      <stop offset="1" stop-color="#6366f1"/>
    </linearGradient>
    <linearGradient id="nose" x1="120" y1="230" x2="210" y2="290" gradientUnits="userSpaceOnUse">
      <stop stop-color="#60a5fa"/>
      <stop offset="1" stop-color="#3b82f6"/>
    </linearGradient>
    <radialGradient id="glow" cx="256" cy="268" r="150" gradientUnits="userSpaceOnUse">
      <stop stop-color="#3b82f6" stop-opacity="0.3"/>
      <stop offset="1" stop-color="#3b82f6" stop-opacity="0"/>
    </radialGradient>
  </defs>

  <!-- Full-bleed background for Android adaptive icon safe zone -->
  <rect width="512" height="512" fill="url(#bg)"/>
  <circle cx="256" cy="268" r="140" fill="url(#glow)"/>

  <!-- Track (centered in safe zone) -->
  <path d="M108 348 C168 332, 220 360, 256 348 C292 336, 344 360, 404 348" stroke="#475569" stroke-width="5" stroke-linecap="round" opacity="0.8"/>
  <line x1="156" y1="348" x2="156" y2="360" stroke="#64748b" stroke-width="3" stroke-linecap="round"/>
  <line x1="256" y1="348" x2="256" y2="360" stroke="#64748b" stroke-width="3" stroke-linecap="round"/>
  <line x1="356" y1="348" x2="356" y2="360" stroke="#64748b" stroke-width="3" stroke-linecap="round"/>

  <!-- Train -->
  <path d="M120 276 C120 240, 148 212, 200 212 L300 212 C334 212, 362 226, 376 252 L384 276 L384 296 C384 312, 370 326, 350 326 L154 326 C134 326, 120 312, 120 296 Z" fill="url(#train)"/>
  <path d="M120 276 C120 250, 138 226, 168 218 L200 212 C166 228, 148 252, 144 276 Z" fill="url(#nose)"/>
  <rect x="176" y="228" width="168" height="32" rx="6" fill="#0f172a" opacity="0.4"/>
  <rect x="190" y="234" width="36" height="18" rx="3" fill="#bfdbfe" opacity="0.85"/>
  <rect x="234" y="234" width="36" height="18" rx="3" fill="#bfdbfe" opacity="0.7"/>
  <rect x="278" y="234" width="36" height="18" rx="3" fill="#bfdbfe" opacity="0.55"/>
  <circle cx="138" cy="266" r="8" fill="#fef08a"/>
  <path d="M248 212 L256 188 L264 212" stroke="#94a3b8" stroke-width="3.5" stroke-linecap="round" stroke-linejoin="round"/>

  <!-- Q badge -->
  <circle cx="360" cy="168" r="44" fill="#111827" stroke="#3b82f6" stroke-width="3.5"/>
  <text x="360" y="182" text-anchor="middle" font-family="Arial, Helvetica, sans-serif" font-size="38" font-weight="900" fill="#ffffff">Q</text>

  <!-- Spark -->
  <path d="M318 148 L324 136 L330 148 L342 154 L330 160 L324 172 L318 160 L306 154 Z" fill="#fbbf24"/>
</svg>
