<svg xmlns="http://www.w3.org/2000/svg" viewBox="0 0 120 120" fill="none" role="img" aria-label="Ż řňĘĮ§ļ Ūī">
  <defs>
    <linearGradient id="train" x1="8" y1="60" x2="88" y2="60" gradientUnits="userSpaceOnUse">
      <stop stop-color="#3b82f6"/>
      <stop offset="1" stop-color="#6366f1"/>
    </linearGradient>
    <linearGradient id="ring" x1="76" y1="20" x2="108" y2="52" gradientUnits="userSpaceOnUse">
      <stop stop-color="#60a5fa"/>
      <stop offset="1" stop-color="#818cf8"/>
    </linearGradient>
  </defs>

  <!-- Mini train -->
  <path d="M8 62 C8 46, 18 34, 34 34 L62 34 C72 34, 80 40, 84 50 L88 62 L88 72 C88 80, 82 86, 74 86 L26 86 C18 86, 12 80, 12 72 Z" fill="url(#train)"/>
  <path d="M8 62 C8 50, 16 40, 28 36 L34 34 C22 42, 14 52, 12 62 Z" fill="#60a5fa"/>
  <rect x="30" y="44" width="40" height="12" rx="3" fill="#0f172a" opacity="0.35"/>
  <rect x="36" y="47" width="10" height="6" rx="1.5" fill="#dbeafe"/>
  <rect x="50" y="47" width="10" height="6" rx="1.5" fill="#dbeafe" opacity="0.8"/>
  <circle cx="18" cy="58" r="4" fill="#fef08a"/>

  <!-- Track -->
  <line x1="4" y1="92" x2="92" y2="92" stroke="#475569" stroke-width="2" stroke-linecap="round"/>
  <line x1="28" y1="92" x2="28" y2="98" stroke="#64748b" stroke-width="2" stroke-linecap="round"/>
  <line x1="56" y1="92" x2="56" y2="98" stroke="#64748b" stroke-width="2" stroke-linecap="round"/>

  <!-- Q badge -->
  <circle cx="96" cy="28" r="22" fill="#111827" stroke="url(#ring)" stroke-width="3"/>
  <text x="96" y="36" text-anchor="middle" font-family="Arial, Helvetica, sans-serif" font-size="22" font-weight="900" fill="#ffffff">Q</text>
</svg>
