<svg xmlns="http://www.w3.org/2000/svg" viewBox="0 0 390 844" fill="none" role="img" aria-label="ťťť?ťťť">
  <defs>
    <linearGradient id="bg" x1="0" y1="0" x2="390" y2="844" gradientUnits="userSpaceOnUse">
      <stop stop-color="#0a0e17"/>
      <stop offset="0.55" stop-color="#111827"/>
      <stop offset="1" stop-color="#1e1b4b"/>
    </linearGradient>
    <linearGradient id="train" x1="70" y1="420" x2="320" y2="420" gradientUnits="userSpaceOnUse">
      <stop stop-color="#2563eb"/>
      <stop offset="1" stop-color="#6366f1"/>
    </linearGradient>
    <radialGradient id="glow" cx="195" cy="400" r="200" gradientUnits="userSpaceOnUse">
      <stop stop-color="#3b82f6" stop-opacity="0.28"/>
      <stop offset="1" stop-color="#3b82f6" stop-opacity="0"/>
    </radialGradient>
    <linearGradient id="title" x1="195" y1="520" x2="195" y2="580" gradientUnits="userSpaceOnUse">
      <stop stop-color="#ffffff"/>
      <stop offset="1" stop-color="#60a5fa"/>
    </linearGradient>
  </defs>

  <rect width="390" height="844" fill="url(#bg)"/>

  <!-- Subtle rail grid -->
  <g opacity="0.06" stroke="#ffffff" stroke-width="1">
    <line x1="0" y1="120" x2="390" y2="120"/>
    <line x1="0" y1="240" x2="390" y2="240"/>
    <line x1="0" y1="360" x2="390" y2="360"/>
    <line x1="0" y1="480" x2="390" y2="480"/>
    <line x1="0" y1="600" x2="390" y2="600"/>
    <line x1="0" y1="720" x2="390" y2="720"/>
  </g>

  <circle cx="195" cy="380" r="180" fill="url(#glow)"/>

  <!-- Icon mark -->
  <g transform="translate(195 340)">
    <path d="M-110 28 C-110 -8, -78 -40, -18 -40 L114 -40 C154 -40, 186 -22, 202 12 L210 32 L210 56 C210 76, 194 92, 170 92 L-70 92 C-94 92, -110 76, -110 56 Z" fill="url(#train)"/>
    <path d="M-110 32 C-110 2, -88 -26, -50 -34 L-18 -40 C-58 -22, -78 8, -82 32 Z" fill="#60a5fa"/>
    <rect x="-38" y="-18" width="200" height="36" rx="8" fill="#0f172a" opacity="0.4"/>
    <rect x="-22" y="-10" width="44" height="20" rx="4" fill="#bfdbfe" opacity="0.9"/>
    <rect x="30" y="-10" width="44" height="20" rx="4" fill="#bfdbfe" opacity="0.75"/>
    <rect x="82" y="-10" width="44" height="20" rx="4" fill="#bfdbfe" opacity="0.6"/>
    <circle cx="-88" cy="22" r="10" fill="#fef08a"/>
    <path d="M42 -40 L50 -68 L58 -40" stroke="#94a3b8" stroke-width="4" stroke-linecap="round" stroke-linejoin="round"/>
    <circle cx="86" cy="-92" r="52" fill="#111827" stroke="#3b82f6" stroke-width="4"/>
    <text x="86" y="-76" text-anchor="middle" font-family="Arial, Helvetica, sans-serif" font-size="44" font-weight="900" fill="#ffffff">Q</text>
    <path d="M34 -120 L42 -136 L50 -120 L66 -112 L50 -104 L42 -88 L34 -104 L18 -112 Z" fill="#fbbf24"/>
    <path d="M-90 112 C-30 92, 50 128, 90 112" stroke="#475569" stroke-width="6" stroke-linecap="round"/>
  </g>

  <!-- Title -->
  <text x="195" y="548" text-anchor="middle" font-family="Arial, Helvetica, sans-serif" font-size="34" font-weight="900" fill="url(#title)" letter-spacing="2">ťťť?ťťť</text>
  <text x="195" y="588" text-anchor="middle" font-family="Arial, Helvetica, sans-serif" font-size="15" fill="#94a3b8">DSťXnťťť[</text>

  <!-- Loading bar -->
  <rect x="95" y="640" width="200" height="4" rx="2" fill="#1e293b"/>
  <rect x="95" y="640" width="120" height="4" rx="2" fill="#3b82f6"/>
</svg>
